<mxfile host="app.diagrams.net" modified="2024-01-08T12:54:31.966Z" agent="Mozilla/5.0 (Macintosh; Intel Mac OS X 10_15_7) AppleWebKit/537.36 (KHTML, like Gecko) Chrome/120.0.0.0 Safari/537.36" version="21.3.3" etag="3jdaF_TOXT_zGKeEo6eL" type="github">
  <diagram name="第 1 页" id="nby07r78a3QQbk8zcpKg">
    <mxGraphModel>
      <root>
        <mxCell id="0" />
        <mxCell id="1" parent="0" />
      </root>
    </mxGraphModel>
  </diagram>
</mxfile>
